#define 100_width 11
#define 100_height 17
static char 100_bits[] = {
  0x00, 0x00, 0x00, 0x00, 0x00, 0x00, 0xC0, 0x00, 0x80, 0x00, 0x80, 0x00, 
  0xBC, 0x00, 0xC4, 0x00, 0x82, 0x00, 0x82, 0x00, 0x82, 0x00, 0xC4, 0x00, 
  0xFC, 0x01, 0x00, 0x00, 0x00, 0x00, 0x00, 0x00, 0x00, 0x00, };
