#define 101_width 11
#define 101_height 17
static char 101_bits[] = {
  0x00, 0x00, 0x00, 0x00, 0x00, 0x00, 0x00, 0x00, 0x00, 0x00, 0x00, 0x00, 
  0x78, 0x00, 0x86, 0x00, 0x82, 0x00, 0xFE, 0x00, 0x02, 0x00, 0x04, 0x00, 
  0xFC, 0x00, 0x00, 0x00, 0x00, 0x00, 0x00, 0x00, 0x00, 0x00, };
