#define 103_width 11
#define 103_height 17
static char 103_bits[] = {
  0x00, 0x00, 0x00, 0x00, 0x00, 0x00, 0x00, 0x00, 0x00, 0x00, 0x00, 0x00, 
  0xBC, 0x01, 0xC4, 0x00, 0x82, 0x00, 0x82, 0x00, 0x82, 0x00, 0xC6, 0x00, 
  0xBC, 0x00, 0x80, 0x00, 0x80, 0x00, 0x78, 0x00, 0x00, 0x00, };
