#define 106_width 11
#define 106_height 17
static char 106_bits[] = {
  0x00, 0x00, 0x00, 0x00, 0x00, 0x00, 0x20, 0x00, 0x20, 0x00, 0x00, 0x00, 
  0x7C, 0x00, 0x40, 0x00, 0x40, 0x00, 0x40, 0x00, 0x40, 0x00, 0x40, 0x00, 
  0x40, 0x00, 0x40, 0x00, 0x40, 0x00, 0x3C, 0x00, 0x00, 0x00, };
