#define 107_width 11
#define 107_height 17
static char 107_bits[] = {
  0x00, 0x00, 0x00, 0x00, 0x00, 0x00, 0x06, 0x00, 0x04, 0x00, 0x04, 0x00, 
  0xE4, 0x00, 0x24, 0x00, 0x14, 0x00, 0x1C, 0x00, 0x24, 0x00, 0x64, 0x00, 
  0xC6, 0x01, 0x00, 0x00, 0x00, 0x00, 0x00, 0x00, 0x00, 0x00, };
