#define 109_width 11
#define 109_height 17
static unsigned char 109_bits[] = {
   0x00, 0x00, 0x00, 0x00, 0x00, 0x00, 0x00, 0x00, 0x00, 0x00, 0x00, 0x00,
   0x7e, 0x00, 0x92, 0x00, 0x92, 0x00, 0x92, 0x00, 0x92, 0x00, 0x92, 0x00,
   0xb6, 0x00, 0x00, 0x00, 0x00, 0x00, 0x00, 0x00, 0x00, 0x00 };
