#define 109_width 11
#define 109_height 17
static unsigned char 109_bits[] = {
   0x00, 0x00, 0x00, 0x00, 0x00, 0x00, 0x00, 0x00, 0x00, 0x00, 0x00, 0x00,
   0xff, 0x00, 0x12, 0x01, 0x12, 0x01, 0x12, 0x01, 0x12, 0x01, 0x12, 0x01,
   0x37, 0x01, 0x00, 0x00, 0x00, 0x00, 0x00, 0x00, 0x00, 0x00 };
