#define 111_width 11
#define 111_height 17
static unsigned char 111_bits[] = {
   0x00, 0x00, 0x00, 0x00, 0x00, 0x00, 0x00, 0x00, 0x00, 0x00, 0x00, 0x00,
   0x78, 0x00, 0x84, 0x00, 0x82, 0x00, 0x82, 0x00, 0x82, 0x00, 0x84, 0x00,
   0x7c, 0x00, 0x00, 0x00, 0x00, 0x00, 0x00, 0x00, 0x00, 0x00 };
