#define 112_width 11
#define 112_height 17
static unsigned char 112_bits[] = {
   0x00, 0x00, 0x00, 0x00, 0x00, 0x00, 0x00, 0x00, 0x00, 0x00, 0x00, 0x00,
   0x7a, 0x00, 0x8e, 0x00, 0x84, 0x01, 0x04, 0x01, 0x04, 0x01, 0x84, 0x00,
   0x7c, 0x00, 0x04, 0x00, 0x06, 0x00, 0x0e, 0x00, 0x00, 0x00 };
