#define 115_width 11
#define 115_height 17
static char 115_bits[] = {
  0x00, 0x00, 0x00, 0x00, 0x00, 0x00, 0x00, 0x00, 0x00, 0x00, 0x00, 0x00, 
  0xF8, 0x00, 0x84, 0x00, 0x0C, 0x00, 0xF0, 0x00, 0x80, 0x00, 0x86, 0x00, 
  0x7C, 0x00, 0x00, 0x00, 0x00, 0x00, 0x00, 0x00, 0x00, 0x00, };
