#define 118_width 11
#define 118_height 17
static char 118_bits[] = {
  0x00, 0x00, 0x00, 0x00, 0x00, 0x00, 0x00, 0x00, 0x00, 0x00, 0x00, 0x00, 
  0xCE, 0x01, 0x84, 0x00, 0x44, 0x00, 0x48, 0x00, 0x48, 0x00, 0x30, 0x00, 
  0x30, 0x00, 0x00, 0x00, 0x00, 0x00, 0x00, 0x00, 0x00, 0x00, };
