#define 119_width 11
#define 119_height 17
static char 119_bits[] = {
  0x00, 0x00, 0x00, 0x00, 0x00, 0x00, 0x00, 0x00, 0x00, 0x00, 0x00, 0x00, 
  0xC6, 0x01, 0x82, 0x00, 0xB2, 0x00, 0xB4, 0x00, 0xAC, 0x00, 0xCC, 0x00, 
  0x4C, 0x00, 0x00, 0x00, 0x00, 0x00, 0x00, 0x00, 0x00, 0x00, };
