#define 120_width 11
#define 120_height 17
static char 120_bits[] = {
  0x00, 0x00, 0x00, 0x00, 0x00, 0x00, 0x00, 0x00, 0x00, 0x00, 0x00, 0x00, 
  0xCE, 0x00, 0x44, 0x00, 0x38, 0x00, 0x30, 0x00, 0x28, 0x00, 0xC4, 0x00, 
  0xCE, 0x01, 0x00, 0x00, 0x00, 0x00, 0x00, 0x00, 0x00, 0x00, };
