#define 121_width 11
#define 121_height 17
static char 121_bits[] = {
  0x00, 0x00, 0x00, 0x00, 0x00, 0x00, 0x00, 0x00, 0x00, 0x00, 0x00, 0x00, 
  0xCE, 0x01, 0x84, 0x00, 0x84, 0x00, 0x48, 0x00, 0x28, 0x00, 0x30, 0x00, 
  0x30, 0x00, 0x10, 0x00, 0x10, 0x00, 0x1E, 0x00, 0x00, 0x00, };
