#define 122_width 11
#define 122_height 17
static char 122_bits[] = {
  0x00, 0x00, 0x00, 0x00, 0x00, 0x00, 0x00, 0x00, 0x00, 0x00, 0x00, 0x00, 
  0xFC, 0x00, 0x44, 0x00, 0x20, 0x00, 0x10, 0x00, 0x18, 0x00, 0x88, 0x00, 
  0xFC, 0x00, 0x00, 0x00, 0x00, 0x00, 0x00, 0x00, 0x00, 0x00, };
