#define 123_width 11
#define 123_height 17
static unsigned char 123_bits[] = {
   0x00, 0x00, 0x00, 0x00, 0x00, 0x00, 0x30, 0x00, 0x10, 0x00, 0x10, 0x00,
   0x10, 0x00, 0x08, 0x00, 0x0c, 0x00, 0x08, 0x00, 0x10, 0x00, 0x10, 0x00,
   0x10, 0x00, 0x30, 0x00, 0x00, 0x00, 0x00, 0x00, 0x00, 0x00 };
