#define 125_width 11
#define 125_height 17
static char 125_bits[] = {
  0x00, 0x00, 0x00, 0x00, 0x00, 0x00, 0x18, 0x00, 0x10, 0x00, 0x10, 0x00, 
  0x10, 0x00, 0x30, 0x00, 0x60, 0x00, 0x30, 0x00, 0x10, 0x00, 0x10, 0x00, 
  0x10, 0x00, 0x10, 0x00, 0x18, 0x00, 0x00, 0x00, 0x00, 0x00, };
