#define 34_width 11
#define 34_height 17
static unsigned char 34_bits[] = {
   0x00, 0x00, 0x00, 0x00, 0x00, 0x00, 0x6c, 0x00, 0x6c, 0x00, 0x48, 0x00,
   0x6c, 0x00, 0x00, 0x00, 0x00, 0x00, 0x00, 0x00, 0x00, 0x00, 0x00, 0x00,
   0x00, 0x00, 0x00, 0x00, 0x00, 0x00, 0x00, 0x00, 0x00, 0x00 };
