#define 35_width 11
#define 35_height 17
static unsigned char 35_bits[] = {
   0x00, 0x00, 0x00, 0x00, 0x28, 0x00, 0x28, 0x00, 0x28, 0x00, 0x28, 0x00,
   0xfe, 0x00, 0x28, 0x00, 0x28, 0x00, 0xfe, 0x00, 0x28, 0x00, 0x28, 0x00,
   0x28, 0x00, 0x28, 0x00, 0x00, 0x00, 0x00, 0x00, 0x00, 0x00 };
