#define 36_width 11
#define 36_height 17
static unsigned char 36_bits[] = {
   0x00, 0x00, 0x10, 0x00, 0x10, 0x00, 0x30, 0x00, 0xc8, 0x00, 0x84, 0x00,
   0x0c, 0x00, 0x78, 0x00, 0xc0, 0x00, 0x80, 0x00, 0x84, 0x00, 0x7c, 0x00,
   0x10, 0x00, 0x10, 0x00, 0x10, 0x00, 0x00, 0x00, 0x00, 0x00 };
