#define 37_width 11
#define 37_height 17
static char 37_bits[] = {
  0x00, 0x00, 0x00, 0x00, 0x00, 0x00, 0x1C, 0x00, 0x24, 0x00, 0x34, 0x00, 
  0x98, 0x00, 0xE0, 0x00, 0x1C, 0x00, 0x72, 0x00, 0x90, 0x00, 0x90, 0x00, 
  0x70, 0x00, 0x00, 0x00, 0x00, 0x00, 0x00, 0x00, 0x00, 0x00, };
