#define 38_width 11
#define 38_height 17
static char 38_bits[] = {
  0x00, 0x00, 0x00, 0x00, 0x00, 0x00, 0x00, 0x00, 0x38, 0x00, 0x08, 0x00, 
  0x08, 0x00, 0x08, 0x00, 0x08, 0x00, 0x5C, 0x00, 0x70, 0x00, 0x64, 0x00, 
  0x7C, 0x00, 0x00, 0x00, 0x00, 0x00, 0x00, 0x00, 0x00, 0x00, };
