#define 43_width 11
#define 43_height 17
static unsigned char 43_bits[] = {
   0x00, 0x00, 0x00, 0x00, 0x00, 0x00, 0x00, 0x00, 0x00, 0x00, 0x10, 0x00,
   0x10, 0x00, 0x10, 0x00, 0xfe, 0x00, 0x10, 0x00, 0x10, 0x00, 0x10, 0x00,
   0x00, 0x00, 0x00, 0x00, 0x00, 0x00, 0x00, 0x00, 0x00, 0x00 };
