#define 47_width 11
#define 47_height 17
static char 47_bits[] = {
  0x00, 0x00, 0x00, 0x00, 0x80, 0x00, 0xC0, 0x00, 0x40, 0x00, 0x60, 0x00, 
  0x20, 0x00, 0x10, 0x00, 0x10, 0x00, 0x18, 0x00, 0x08, 0x00, 0x08, 0x00, 
  0x04, 0x00, 0x04, 0x00, 0x00, 0x00, 0x00, 0x00, 0x00, 0x00, };
