#define 51_width 11
#define 51_height 17
static char 51_bits[] = {
  0x00, 0x00, 0x00, 0x00, 0x00, 0x00, 0x78, 0x00, 0xC4, 0x00, 0x80, 0x00, 
  0x40, 0x00, 0x70, 0x00, 0xC0, 0x00, 0x80, 0x00, 0x80, 0x00, 0x80, 0x00, 
  0x7C, 0x00, 0x00, 0x00, 0x00, 0x00, 0x00, 0x00, 0x00, 0x00, };
