#define 52_width 11
#define 52_height 17
static char 52_bits[] = {
  0x00, 0x00, 0x00, 0x00, 0x00, 0x00, 0x60, 0x00, 0x50, 0x00, 0x50, 0x00, 
  0x48, 0x00, 0x44, 0x00, 0x44, 0x00, 0x7C, 0x00, 0x40, 0x00, 0x40, 0x00, 
  0xE0, 0x00, 0x00, 0x00, 0x00, 0x00, 0x00, 0x00, 0x00, 0x00, };
