#define 53_width 11
#define 53_height 17
static char 53_bits[] = {
  0x00, 0x00, 0x00, 0x00, 0x00, 0x00, 0x7C, 0x00, 0x04, 0x00, 0x04, 0x00, 
  0x7C, 0x00, 0xC0, 0x00, 0x80, 0x00, 0x80, 0x00, 0x80, 0x00, 0xC4, 0x00, 
  0x7C, 0x00, 0x00, 0x00, 0x00, 0x00, 0x00, 0x00, 0x00, 0x00, };
