#define 54_width 11
#define 54_height 17
static char 54_bits[] = {
  0x00, 0x00, 0x00, 0x00, 0x00, 0x00, 0xF0, 0x00, 0x18, 0x00, 0x08, 0x00, 
  0x04, 0x00, 0x74, 0x00, 0x9C, 0x00, 0x84, 0x00, 0x84, 0x00, 0x88, 0x00, 
  0x70, 0x00, 0x00, 0x00, 0x00, 0x00, 0x00, 0x00, 0x00, 0x00, };
