#define 56_width 11
#define 56_height 17
static unsigned char 56_bits[] = {
   0x00, 0x00, 0x00, 0x00, 0x00, 0x00, 0x78, 0x00, 0x84, 0x00, 0x84, 0x00,
   0x84, 0x00, 0x78, 0x00, 0x84, 0x00, 0x84, 0x00, 0x84, 0x00, 0x84, 0x00,
   0x78, 0x00, 0x00, 0x00, 0x00, 0x00, 0x00, 0x00, 0x00, 0x00 };
