#define 57_width 11
#define 57_height 17
static char 57_bits[] = {
  0x00, 0x00, 0x00, 0x00, 0x00, 0x00, 0x78, 0x00, 0xC4, 0x00, 0x84, 0x00, 
  0x84, 0x00, 0xCC, 0x00, 0xB8, 0x00, 0x80, 0x00, 0xC0, 0x00, 0x60, 0x00, 
  0x3C, 0x00, 0x00, 0x00, 0x00, 0x00, 0x00, 0x00, 0x00, 0x00, };
