#define 60_width 11
#define 60_height 17
static char 60_bits[] = {
  0x00, 0x00, 0x00, 0x00, 0x00, 0x00, 0x00, 0x00, 0x80, 0x00, 0xC0, 0x00, 
  0x30, 0x00, 0x0C, 0x00, 0x0E, 0x00, 0x18, 0x00, 0x60, 0x00, 0x80, 0x00, 
  0x00, 0x00, 0x00, 0x00, 0x00, 0x00, 0x00, 0x00, 0x00, 0x00, };
