#define 62_width 11
#define 62_height 17
static char 62_bits[] = {
  0x00, 0x00, 0x00, 0x00, 0x00, 0x00, 0x00, 0x00, 0x00, 0x00, 0x0C, 0x00, 
  0x18, 0x00, 0xE0, 0x00, 0xC0, 0x00, 0x60, 0x00, 0x18, 0x00, 0x06, 0x00, 
  0x00, 0x00, 0x00, 0x00, 0x00, 0x00, 0x00, 0x00, 0x00, 0x00, };
