#define 63_width 11
#define 63_height 17
static char 63_bits[] = {
  0x00, 0x00, 0x00, 0x00, 0x00, 0x00, 0x00, 0x00, 0x7C, 0x00, 0x84, 0x00, 
  0x80, 0x00, 0x40, 0x00, 0x30, 0x00, 0x10, 0x00, 0x00, 0x00, 0x30, 0x00, 
  0x30, 0x00, 0x00, 0x00, 0x00, 0x00, 0x00, 0x00, 0x00, 0x00, };
