#define 64_width 11
#define 64_height 17
static unsigned char 64_bits[] = {
   0x00, 0x00, 0x00, 0x00, 0x00, 0x00, 0x38, 0x00, 0x44, 0x00, 0x84, 0x00,
   0xe4, 0x00, 0xd4, 0x00, 0x94, 0x00, 0x54, 0x00, 0x64, 0x00, 0x04, 0x00,
   0x04, 0x00, 0x78, 0x00, 0x00, 0x00, 0x00, 0x00, 0x00, 0x00 };
