#define 65_width 11
#define 65_height 17
static char 65_bits[] = {
  0x00, 0x00, 0x00, 0x00, 0x00, 0x00, 0x00, 0x00, 0x3C, 0x00, 0x28, 0x00, 
  0x28, 0x00, 0x48, 0x00, 0x44, 0x00, 0xFC, 0x00, 0x84, 0x00, 0x82, 0x00, 
  0xC7, 0x01, 0x00, 0x00, 0x00, 0x00, 0x00, 0x00, 0x00, 0x00, };
