#define 66_width 11
#define 66_height 17
static char 66_bits[] = {
  0x00, 0x00, 0x00, 0x00, 0x00, 0x00, 0x00, 0x00, 0x7E, 0x00, 0x84, 0x00, 
  0x84, 0x00, 0x84, 0x00, 0x7C, 0x00, 0x84, 0x00, 0x04, 0x01, 0x04, 0x01, 
  0xFE, 0x00, 0x00, 0x00, 0x00, 0x00, 0x00, 0x00, 0x00, 0x00, };
