#define 69_width 11
#define 69_height 17
static unsigned char 69_bits[] = {
   0x00, 0x00, 0x00, 0x00, 0x00, 0x00, 0x00, 0x00, 0xfe, 0x00, 0x84, 0x00,
   0x84, 0x00, 0x24, 0x00, 0x3c, 0x00, 0x24, 0x00, 0x04, 0x00, 0x84, 0x00,
   0xfe, 0x00, 0x00, 0x00, 0x00, 0x00, 0x00, 0x00, 0x00, 0x00 };
