#define 70_width 11
#define 70_height 17
static unsigned char 70_bits[] = {
   0x00, 0x00, 0x00, 0x00, 0x00, 0x00, 0x00, 0x00, 0xfe, 0x00, 0x84, 0x00,
   0x04, 0x00, 0x24, 0x00, 0x3c, 0x00, 0x24, 0x00, 0x04, 0x00, 0x04, 0x00,
   0x1e, 0x00, 0x00, 0x00, 0x00, 0x00, 0x00, 0x00, 0x00, 0x00 };
