#define 71_width 11
#define 71_height 17
static unsigned char 71_bits[] = {
   0x00, 0x00, 0x00, 0x00, 0x00, 0x00, 0x00, 0x00, 0xf8, 0x00, 0x84, 0x01,
   0x02, 0x00, 0x02, 0x00, 0x02, 0x00, 0xe2, 0x01, 0x02, 0x01, 0x84, 0x01,
   0xf8, 0x00, 0x00, 0x00, 0x00, 0x00, 0x00, 0x00, 0x00, 0x00 };
