#define 72_width 11
#define 72_height 17
static unsigned char 72_bits[] = {
   0x00, 0x00, 0x00, 0x00, 0x00, 0x00, 0x00, 0x00, 0xce, 0x01, 0x84, 0x00,
   0x84, 0x00, 0x84, 0x00, 0xfc, 0x00, 0x84, 0x00, 0x84, 0x00, 0x84, 0x00,
   0xce, 0x01, 0x00, 0x00, 0x00, 0x00, 0x00, 0x00, 0x00, 0x00 };
