#define 74_width 11
#define 74_height 17
static unsigned char 74_bits[] = {
   0x00, 0x00, 0x00, 0x00, 0x00, 0x00, 0x00, 0x00, 0xf0, 0x01, 0x40, 0x00,
   0x40, 0x00, 0x40, 0x00, 0x40, 0x00, 0x42, 0x00, 0x42, 0x00, 0x42, 0x00,
   0x3c, 0x00, 0x00, 0x00, 0x00, 0x00, 0x00, 0x00, 0x00, 0x00 };
