#define 75_width 11
#define 75_height 17
static char 75_bits[] = {
  0x00, 0x00, 0x00, 0x00, 0x00, 0x00, 0x00, 0x00, 0xCE, 0x01, 0x44, 0x00, 
  0x64, 0x00, 0x14, 0x00, 0x2C, 0x00, 0x64, 0x00, 0x44, 0x00, 0x84, 0x00, 
  0x8E, 0x01, 0x00, 0x00, 0x00, 0x00, 0x00, 0x00, 0x00, 0x00, };
