#define 76_width 11
#define 76_height 17
static char 76_bits[] = {
  0x00, 0x00, 0x00, 0x00, 0x00, 0x00, 0x00, 0x00, 0x3E, 0x00, 0x08, 0x00, 
  0x08, 0x00, 0x08, 0x00, 0x08, 0x00, 0x08, 0x01, 0x08, 0x01, 0x08, 0x01, 
  0xFE, 0x01, 0x00, 0x00, 0x00, 0x00, 0x00, 0x00, 0x00, 0x00, };
