#define 77_width 11
#define 77_height 17
static unsigned char 77_bits[] = {
   0x00, 0x00, 0x00, 0x00, 0x00, 0x00, 0x00, 0x00, 0x87, 0x03, 0xc6, 0x01,
   0x4a, 0x01, 0x4a, 0x01, 0x3a, 0x01, 0x32, 0x01, 0x02, 0x01, 0x02, 0x01,
   0xc7, 0x03, 0x00, 0x00, 0x00, 0x00, 0x00, 0x00, 0x00, 0x00 };
