#define 78_width 11
#define 78_height 17
static unsigned char 78_bits[] = {
   0x00, 0x00, 0x00, 0x00, 0x00, 0x00, 0x00, 0x00, 0xc7, 0x01, 0x86, 0x00,
   0x8a, 0x00, 0x92, 0x00, 0x92, 0x00, 0xa2, 0x00, 0xc2, 0x00, 0xc2, 0x00,
   0x8f, 0x00, 0x00, 0x00, 0x00, 0x00, 0x00, 0x00, 0x00, 0x00 };
