#define 79_width 11
#define 79_height 17
static char 79_bits[] = {
  0x00, 0x00, 0x00, 0x00, 0x00, 0x00, 0x00, 0x00, 0x7C, 0x00, 0x84, 0x00, 
  0x82, 0x01, 0x02, 0x01, 0x02, 0x01, 0x02, 0x01, 0x82, 0x01, 0xC6, 0x00, 
  0x78, 0x00, 0x00, 0x00, 0x00, 0x00, 0x00, 0x00, 0x00, 0x00, };
