#define 80_width 11
#define 80_height 17
static char 80_bits[] = {
  0x00, 0x00, 0x00, 0x00, 0x00, 0x00, 0x00, 0x00, 0x7E, 0x00, 0x84, 0x00, 
  0x84, 0x00, 0xC4, 0x00, 0x7C, 0x00, 0x04, 0x00, 0x04, 0x00, 0x04, 0x00, 
  0x1E, 0x00, 0x00, 0x00, 0x00, 0x00, 0x00, 0x00, 0x00, 0x00, };
