#define 81_width 11
#define 81_height 17
static char 81_bits[] = {
  0x00, 0x00, 0x00, 0x00, 0x00, 0x00, 0x00, 0x00, 0x78, 0x00, 0x84, 0x00, 
  0x82, 0x01, 0x02, 0x01, 0x02, 0x01, 0x02, 0x01, 0x82, 0x01, 0x84, 0x00, 
  0x78, 0x00, 0x78, 0x01, 0xCC, 0x00, 0x00, 0x00, 0x00, 0x00, };
