#define 82_width 11
#define 82_height 17
static char 82_bits[] = {
  0x00, 0x00, 0x00, 0x00, 0x00, 0x00, 0x00, 0x00, 0x7E, 0x00, 0x84, 0x00, 
  0x84, 0x00, 0xC4, 0x00, 0x7C, 0x00, 0x44, 0x00, 0x44, 0x00, 0x84, 0x00, 
  0x0E, 0x01, 0x00, 0x00, 0x00, 0x00, 0x00, 0x00, 0x00, 0x00, };
