#define 82_width 11
#define 82_height 17
static unsigned char 82_bits[] = {
   0x00, 0x00, 0x00, 0x00, 0x00, 0x00, 0x00, 0x00, 0x7e, 0x00, 0x84, 0x00,
   0x84, 0x00, 0xc4, 0x00, 0x7c, 0x00, 0x44, 0x00, 0x44, 0x00, 0x84, 0x00,
   0x8e, 0x00, 0x00, 0x00, 0x00, 0x00, 0x00, 0x00, 0x00, 0x00 };
