#define 83_width 11
#define 83_height 17
static char 83_bits[] = {
  0x00, 0x00, 0x00, 0x00, 0x00, 0x00, 0x00, 0x00, 0xF8, 0x00, 0x84, 0x00, 
  0x84, 0x00, 0x0C, 0x00, 0x70, 0x00, 0x80, 0x00, 0x82, 0x00, 0x86, 0x00, 
  0x7A, 0x00, 0x00, 0x00, 0x00, 0x00, 0x00, 0x00, 0x00, 0x00, };
