#define 85_width 11
#define 85_height 17
static unsigned char 85_bits[] = {
   0x00, 0x00, 0x00, 0x00, 0x00, 0x00, 0x00, 0x00, 0xce, 0x01, 0x82, 0x00,
   0x82, 0x00, 0x82, 0x00, 0x82, 0x00, 0x84, 0x00, 0x84, 0x00, 0x84, 0x00,
   0x78, 0x00, 0x00, 0x00, 0x00, 0x00, 0x00, 0x00, 0x00, 0x00 };
