#define 86_width 11
#define 86_height 17
static unsigned char 86_bits[] = {
   0x00, 0x00, 0x00, 0x00, 0x00, 0x00, 0x00, 0x00, 0xc7, 0x01, 0x82, 0x00,
   0x84, 0x00, 0x44, 0x00, 0x44, 0x00, 0x48, 0x00, 0x28, 0x00, 0x30, 0x00,
   0x30, 0x00, 0x00, 0x00, 0x00, 0x00, 0x00, 0x00, 0x00, 0x00 };
