#define 87_width 11
#define 87_height 17
static unsigned char 87_bits[] = {
   0x00, 0x00, 0x00, 0x00, 0x00, 0x00, 0x00, 0x00, 0xcf, 0x03, 0x02, 0x01,
   0x32, 0x01, 0x32, 0x01, 0x2a, 0x01, 0xca, 0x00, 0xca, 0x00, 0xcc, 0x00,
   0xc4, 0x00, 0x00, 0x00, 0x00, 0x00, 0x00, 0x00, 0x00, 0x00 };
