#define 88_width 11
#define 88_height 17
static char 88_bits[] = {
  0x00, 0x00, 0x00, 0x00, 0x00, 0x00, 0x00, 0x00, 0xC6, 0x01, 0x84, 0x00, 
  0x48, 0x00, 0x38, 0x00, 0x30, 0x00, 0x38, 0x00, 0x48, 0x00, 0x84, 0x00, 
  0xCE, 0x01, 0x00, 0x00, 0x00, 0x00, 0x00, 0x00, 0x00, 0x00, };
