#define 90_width 11
#define 90_height 17
static char 90_bits[] = {
  0x00, 0x00, 0x00, 0x00, 0x00, 0x00, 0x00, 0x00, 0xFC, 0x00, 0x44, 0x00, 
  0x64, 0x00, 0x20, 0x00, 0x10, 0x00, 0x18, 0x00, 0x88, 0x00, 0x84, 0x00, 
  0xFC, 0x00, 0x00, 0x00, 0x00, 0x00, 0x00, 0x00, 0x00, 0x00, };
