#define 91_width 11
#define 91_height 17
static unsigned char 91_bits[] = {
   0x00, 0x00, 0x00, 0x00, 0x00, 0x00, 0x70, 0x00, 0x10, 0x00, 0x10, 0x00,
   0x10, 0x00, 0x10, 0x00, 0x10, 0x00, 0x10, 0x00, 0x10, 0x00, 0x10, 0x00,
   0x10, 0x00, 0x10, 0x00, 0x70, 0x00, 0x00, 0x00, 0x00, 0x00 };
