#define 94_width 11
#define 94_height 17
static char 94_bits[] = {
  0x00, 0x00, 0x00, 0x00, 0x00, 0x00, 0x30, 0x00, 0x68, 0x00, 0x4C, 0x00, 
  0x84, 0x00, 0x00, 0x00, 0x00, 0x00, 0x00, 0x00, 0x00, 0x00, 0x00, 0x00, 
  0x00, 0x00, 0x00, 0x00, 0x00, 0x00, 0x00, 0x00, 0x00, 0x00, };
