#define 97_width 11
#define 97_height 17
static unsigned char 97_bits[] = {
   0x00, 0x00, 0x00, 0x00, 0x00, 0x00, 0x00, 0x00, 0x00, 0x00, 0x00, 0x00,
   0x00, 0x00, 0x38, 0x00, 0x44, 0x00, 0x44, 0x00, 0x42, 0x00, 0xc2, 0x00,
   0xbc, 0x01, 0x00, 0x00, 0x00, 0x00, 0x00, 0x00, 0x00, 0x00 };
