#define 98_width 11
#define 98_height 17
static unsigned char 98_bits[] = {
   0x00, 0x00, 0x00, 0x00, 0x00, 0x00, 0x02, 0x00, 0x02, 0x00, 0x02, 0x00,
   0x7a, 0x00, 0x8e, 0x00, 0x82, 0x01, 0x02, 0x01, 0x02, 0x01, 0x86, 0x00,
   0x7a, 0x00, 0x00, 0x00, 0x00, 0x00, 0x00, 0x00, 0x00, 0x00 };
