#define 99_width 11
#define 99_height 17
static char 99_bits[] = {
  0x00, 0x00, 0x00, 0x00, 0x00, 0x00, 0x00, 0x00, 0x00, 0x00, 0x00, 0x00, 
  0xF8, 0x00, 0x84, 0x00, 0x06, 0x00, 0x02, 0x00, 0x02, 0x00, 0x84, 0x01, 
  0xF8, 0x00, 0x00, 0x00, 0x00, 0x00, 0x00, 0x00, 0x00, 0x00, };
